<svg xmlns="http://www.w3.org/2000/svg" xml:space="preserve" viewBox="0 0 325.4 32.6"><path fill-rule="evenodd" d="m63 16 36 1 21 1 3-1 3 1h8l41-1h29l20-1 5 1 11-1h9l7-1h9l12-1h10l23-1h6l6-1h1l1 1v2l-1 3c-1 1-1-1-2-1h-10c-2 2-1 6-2 8H150l-35-1-98-1c-3 0-6 0-8-2 0-2 2-2 3-4l2-3c3-3 7-3 13-2h5l9 1a199 199 0 0 0 22 3zm256 0 2-1v-2c-1 0-2 1-2 3zm-7-2v2h2v-3l-2 1zM18 18c1 2 5 2 7 2h26l34 1h33l35 1h135c2-1 6 0 5-3 0-2-3-1-5-1l-18 1h-17l-29 1h-45l-46 1-44-1-22-1a678 678 0 0 1-45-4c-3 0-4 1-4 3zm275-2c-1 1 0 1 1 1-1 0 0 4 1 3v-2h4-5l2-1 1 1v-1l6-1c2 0 4 1 4-1l-14 1zm7 3v1l2-1h-2zm-2 1h-2 2zm-16 3H154l-33-1H72l-51-1v1l100 1 65 1h103c-2-2-5-1-7-1zm16-2-4-1-2 2h11v-1s-1 1-1-1l-2 1h1-7 4zm6 1h3v-1h-1c1 1-2 0-2 1z" clip-rule="evenodd"/></svg>