<svg xmlns="http://www.w3.org/2000/svg" version="1.0" viewBox="0 0 1189.01 545.33">
  <path d="M2.2 0c-3.75 54.78-7.08 111.88 24.16 159.86 8.99 22.8 53.9 79 41.4 75.36-33.51-28.94-42.7-75.67-65.45-111.06-8.65 50.36 42.37 91.88 60.64 136.85-2.27 12.49-33.75-39.87-40.38-57.58-8.73-22.65-32.86-51.6-17.56-8.95 7.44 36.08 55.92 80.76 57.98 100.32C34.3 283.1 17.42 210.1 2.24 219c6.47 34.6 61.64 81.7 54.98 101-22.4-15.56-40.2-73.22-52.4-72.5 5.8 32.4 46.43 51.75 44.98 84.4-17.73-16.03-31.15-60.32-43.31-57.7 9.67 26.5 48.04 68.6 44.66 83.4-22.15-7.95-35.34-79.32-52.71-56.13-3.08 17.04 38.22 76.91 3.5 44.26-6.28 40.18 1.64 83.44-1.46 124.86 15.75 30.17 68.79 37.38 101.62 30.38 14.5-21.85 22.9-35.95 51.8-22.2 37.95 13.11 3.56-49.93 43.16-27.6 35.74 31.6 79.19 47.72 124.1 61.96 84.9 26.81 176.31 41.22 264.36 21.7 36.3-8.64 73.92-2.9 110.04-6.9 55.41-14.08 114.8 1.47 168.66-19.08 27.69-6.66 16.68-93.58 8.45-33.08-11.03-37.63-24.8 44.1-19.95-4.87 7.17-38.5-19.65 58.23-19.81 4.72-12.31 36.28-7.12-30.54-11.01 8.62-6.53 24.04-8.84-22.82-14.87 10.42-2.6-29.92-10.78 27.29-12.68-8.85-1.74-3.6-8.76 23.23-13.88 9.14-7.2 18.19-7.47-29.5-14.42 7.64-2.68-27.58-2.36-47.29-5.47-8.83-8.59 12.93-6.3-55.48-8.14-8.74.57 46.15-14.98-34.65-8.94 8.81-6.85 30.05-13.85-56.93-11-6.88 1.16 45.6-9.1-31.95-14.4.33-1.57-32.75-13.67 17.9-12.8-17.2 3.6-58.96 77.47-21.11 114.46-35.06 24.71-18.3 55.1 19.68 42.56 16.45 14.47-33.26 82.32-33 56.95-84.63 1.46-44.46-12.14 37.66-10.82-11.2-.58-41.18-12.31 90.28-13.47 24.52 3.2-59.15-12.6 62.93-12.08 5.78-2.17-33.79.06 41.84-24.83 35.12 14.15-10.93 23.79-70.94 10.7-55.29-.86 17.26-11.98 58.97-12.57 18.07 7.88-18.68.8-46.76-.98-11.46 1.62 25.93-15.74 44.19-12.38 7.75-11.36 44.97-18.8.15-13.75 3.91-1.4 11.04-14.9 30.16-13.99 7.2-5.2 31.05-35.8 7.62-40.27 19.13-20.49 3.75-23.6 15.9-34.72-3.32-8.97 7.8-3.39-15-23.16-15.52 7.35-23.66-19.86-22.39 2.6-49.89 42.3-14.38 90.6.42 134.25-16.3 19.87-6.02 76.66-19.76 59.38-59.16.76-21.6-.04-51.57-2.2-13.51-4.69 30.42-17.05-22.64-14.9 15.42-10.74 58.14-13.91-43.63-13.85-8.3 1.83 22.8-19.95 60.03-14.13 14.67-.03-49.76-4.22 57-18.99 10.13 8.99-17.64.27-66.64 1.58-20.76 4.05 30.17-21.99 50.07-13.07 8.17 3.22-21.26-3.84-45.19-4.7-10.11 10.22 19.41-18.95 78.48-4.29 30.85 8.3-27.42-4.85-45.19-20.7-54.98-25.6-39.3 98.54-17.76 38.83-35.46-17.58-2.51-55.99-2.37-18.31-11.06-28.33-3.2-28.52-1.33.22-8.94 42.2-8.53-68.76 4.25-9.65-7.93 31.65-.83-29.32-10.52 14.26-11.43 29.95 2.91-7.62 12.35 21.73 12.26 37.56-9.02-59.03-27.82-13.44-35.86 61.33-1.15 123.05 2.07 184.2-1.08 52.2 4.96 131.84 14.06 157.3-42.97 8.79-49.1-49.97-56.01-38.81-10.5 8.37-54.51-54.67-31.2-78.56-49.73-9.88 7.18 11.16 80.17-6.47 59.65 21.71-27.43-31.51-93.09-37.77-46.18 6.46 14.34-5.13 58.6-5.57 20.38-2.77 8.3-6.4 30.4-11.36 9.16-2.19 35.82-10.14 15.13-11.96-1.21-1.44 33.46-5.91 25.1-7.43-3.42-3.86-18.57-3.64 61.95-12.59 10.98-.27 18.7-18.38 61.54-8.77 16.42 1.2-28.75-6.41-33.24-8.66-3.03-8.52-20.33-8.99-57.53-7.7-11.22 0 29.24-13.62 30.29-8.79.63-1.93-28.61-13 55.72-16.08 12.03-.77-43.96-20.19 15.25-12.16 9.7-2.47-15.37-3.92-56.47-6.69-16.8-11.98 35-10.17-55.4-15.04-4.95-9.16 38.47 4.18-37.62-8.97-12.1 3.68-49.38-21.32 47.8-17.65 4.24 1.5 40.6-18.19 7.54-18.5 19-15.51 15.66 1.77-56.16-9.3-9.25-9.03 33.9-11.54-23.08-18.88 11.47-13.7-.9-3.82-36.54-12.55-2.43-9.23 15.47-13.15-28.94-19.56 3.74-4.97-22.72-19.14 2.88-16.78-22.46-7.32 30.12-14.42 20.5-14.13-3.82-6.3 24.45-10.9-21.58-20.88 11.03-6.46-2.53-2.76-15.74-16.72-9.08-.27-26.49-7.52 21.2-17.22-10.76-6.6 33.05-15.91-32.02-19.92 7.89-22.52-20.99 18.99 33.53 36.21 24.6 24.5 11.08 67.37 23.52 38 46.1-3.78 15.38-10.96-20.82-14.9 11.02-9.95-24.27-14.59 16.3-21.5-12.66-19.62-10.85-100.2 33.12-52.83 1.75 27.07-3.73 36.78-19 3.5-5.17-24.14 27.17-39.17-.14-39.98 10.72-19.54 24.45-.67-32.22-16.85-.64-17.61-13.8-22.56 10.25-21.44-20.59-10.32 29-18.35 6.25-23.5-13.9 3.15 44-9.03 4.06-18.62-.52 5.53 20.32 16.15 48.52-8.6 15.3-12-23.47-12.7-26.75-3.82 2.63 16.75 54.3-37.71-71.1-18.37-8.4 11.65 39.08-14.92 6.67-17.92-11.7-9.18 21.09 5.76 19.06-5.45 33.93 14.82 33.85-28.96-16.12-8.2 17.57 11.51 25.82-11.98 37.01-22.9 34.44 25.75 25.33 12.33 34.26-3.31 25.79 26.16 44.4-16.52 7.26-16.48 3.41 11.18 14.96-69.13-31.13-31.73 6.17 3.72 26.76-22.79-17.67-13.55 9.87-16.44 8.06-51.83-11.07-17.18 7.46 39.35 32.62-51.57 16.04-6.35 28.95 4.26 26.3-60.72-15.8-18.49 12.59 28.18 22.56-19.18-1.74-6.92 24.13-32.88-17.87-17.5 12.23-8.49 25.44-30.09-4.42-72.83-31.5-57.82 1.76-12.81-22.76-28.46-23.52-21.62-2.37 3.97 8.26 60.3 19.48 31.5 20.3 37.74 30.38 116.51 18.01 140.25 33.65-20.28 6.05-22.8 54.87-24.12 8.76 1.23-35.75-8.56 53.1-17.75 8.85-2.56-13.68-9.63 20.07-17.51-8.48 4.73 15.05-17.02 28.81-18.03 8.39-3.44 42.86-23.05-2.59-7.73-19.57 1.06 20.54-25.9 54.81-13.72 14.8 11.6-29.84-14.97 14.43-14.38-16.1-.04 19.16.6 53.75-8.8 16.12-11.68-36.58 4 41.96-18.94 6.39-25.98 21.94 1.63-31.1-23.59-3.47-.46-4.97-6.8-30.63-17.24-3.55-13.2-25.25-3.28-11.85-16.85-4.67-12.86-30.3-15.52 27.62-25.9 3.37 12.86.43-15.23-19.12-16.03-19.58 4 37.93-18.75-45.28-18.45-64.08-4.81-68.4 14.18-135.35 24.39-202.27-27.07 91.56-33 187.74-34.59 282.72 13.78 24.58-13.83 25.89-17.35 10.24-63.97-15.74-39.15-94.12-36.73-141.08 6.8-48.67 10.25-98.13 16.18-146.32 9.83-33 12.66-4.4 10.11 12.24 4.16-27.74 56.19-29.61 53.49-48.8-14.85 3.98-74.05-2.46-29.77-5.93 29.81 3.72-9.22-38.14 3.72-56.07-34-29.6-88.62-10.18-131.64-22.84-9-1.5-17.93-3.3-26.81-5.38ZM18 7.75c9.9 6.56-6.13 9.4 0 0zm826.69 3.54c-4.17 10.97 12.9-2.87 0 0zm11.81.46c-3.84 3.55 5.71.92 0 0zm12.82.01c-7.96 3.77 5.22 5.85 0 0zm7.1.11c-9.77-2.16 1.92 6.81 0 0zm-864.21.88c16.48 11.94-15.43 19.2 0 0zm850.2 0c-20.83 5.64 11.84.6 0 0zm-816.5 1c2.72 6.93-8.66 4.68 0 0zm11.21.06c14.72 3.13-11.03 8.9 0 0zm779.56.05c-5.93.83 1.4 7.18 0 0zm-726.18.9c4.18 1.3-2.36 3.17 0 0zm649 0c-2.36 3.17 4.18 1.3 0 0zm126.1 0c-6.3 3.15 6.3 3.15 0 0zm-814.64.51c10.44 3.14-6.7 8.39 0 0zm-41.76.48c9.46 7.5-9.02 13.69 0 0zm868.66.1c-4.16-.26-.06 3.62 0 0zm-815.3.27c7.02 1.92-4.55 6.05 0 0zm539.74.63c-5.63.86 1.06 4.79 0 0zm-519.32.93c8 6.52-7.92 12.48 0 0zm599.72.07c-4.18 1.3 2.36 3.17 0 0zm-592.13.04c8.32 4.48-6.58 8.52 0 0zm747.02.99c-3.49 4.02 4.22 1.8 0 0zm49.9.15c-2.06 2.32 2.94 2.23 0 0zm8.48.96c-3.7 12.75 14.46 6.58 0 0zm10.5.44c.48 20.54 18.44 8.94 0 0zm-858.17.42c15.41 16.38-3.58 29.66 0 0zm818.08.08c-5.25 2.8 4.23 3.66 0 0zm-64.52.06c-6.72 7.32 3.29 21.93 0 0zm115.32 1.91c1.66 6.38 10.68-.69 0 0zm-252.88.93c-6.75 12.94 3.56 8.9 0 0zm265.17.47c.4 12.88 12.92-5.36 0 0zm-250.98.73c-2.06 2.3 3.02 2.24 0 0zm-643.03.73c15.98 16.26-4.64 29.58 0 0zm699.9.09c-4.27 5.4 3.95 7.42 0 0zm-643.2.13c12.7 3.87-7.88 12.71 0 0zm-18.65.25c13.62 16.26-5.07 9.7 0 0zm-8.4.62c4.4 2.58-4.67 3.1 0 0zm683 0c-4.21 2.07 3.91 1.39 0 0zm199.6.1c-1.31 12 30.58 14.87 25.6 30.32-6.4-15.53-.42-31.14 13.02-24.51-12.56-3.8-25.94-2.62-38.62-5.81Zm-200.22 4.08c-2.06 2.3 3.02 2.24 0 0zm-353.97 1c-6.68-2.04-8.87 6.5 0 0zm-389.62.82c2.57 4.39-9.05.6 0 0zm16.2 0c7.33 2.3-7.33 2.3 0 0zm714.86.03c-7.21 3.1 3.87 5.82 0 0zm-275.26.97c-4.18 1.3 2.36 3.17 0 0zm-392.8 1c12.22 24.41 1.7 18.51 0 0zm553.56.05c.23 7.8.39 13.37 0 0zm126.94.29c-6.28 1.64 3.24 3.33 0 0zm-377.3.66c-3.7 1.75 4.06 2.12 0 0zm-347.99.14c14.8 19.56-19.16 5.06 0 0zM7.18 36c18.38 32.3-14.1 32.2 0 0zm991.24.27c-2.75 16 15.54 14.22 0 0zm-40.51.47c-10.36 13.1 11.14 12.18 0 0zm-933.98.1c17.68 17.79-10.87 14.46 0 0zm769.5.8c-3.88 7.4 4.06 12.54 0 0zm-684.97.37c4.48 6.3-5.29 6.37 0 0zm710.65.73c-2.8 3.86 4.29 2.82 0 0zm-213.45.06c-1.58 5.51 7.5-.47 0 0zm458.34.06c24.97 12.8 7.64 97.7 5.24 37.34-.76-12.52-.03-25.6-5.24-37.34Zm-296.78.88c-5.14.36 2.18 3.97 0 0zm243.8 0c-9.2 22.88 17.2 11.58 0 0zM936 40.3c-.1 4.34 6.62-2.5 0 0zm5.42.63c-5.17 11.8 13.06 10.57 0 0zm163 .15c-6.28 1.64 3.24 3.33 0 0zm-14.35 4.86c7.01 8.26 5.67 28.87-2.2 10.2 11.3 21.62-9.57 7.74-2.1-4.54zm-1047.1.8c5.71.92-3.84 3.55 0 0zm936.7 0c-4.29 2.82 2.8 3.86 0 0zm-464.6 1c-17.25 7.13-7.45 23.57 0 0zm303.38.18c-2.06 2.3 3.02 2.24 0 0zm213.22 1.18c1.42 25.32-5.86 17.65 0 0zm100.03.1c.17 4.78-6.77-.53 0 0zm-54.23.04c4.05 6.17-2.7 9.68 0 0zm-740.8 1.5c-4.18 1.3 2.36 3.17 0 0zm716.9 1c4.23 2.3-4.23 2.3 0 0zm67.9 0c5.38-.3-3.64 3.5 0 0zm-491.89.03c-4.22 1.8 3.49 4.02 0 0zm375.84.07c-5.26 16.52 8.38 18.55 0 0zm-24.85.9c-5.79 2.14 5.42 1.1 0 0zm64.5 0c7.5 22.36-9.33 74.68-2.43 23.16.8-7.72 1.7-15.43 2.43-23.16zm-502.35.09c-7.13.73-8.6 12.75 0 0zm568.45 1.91c6.33 5.76-7.31 3.4 0 0zm-57 1c9 17-8.42 63.2-2.52 19.4-.2-5.99-3.13-14.54 2.52-19.4zm-412.82.05c-6.2-.53.5 5.64 0 0zm254.02.29c-6.28 1.64 3.24 3.33 0 0zm-244.97.24c-14.96 9.65 10.11 16.55 0 0zm484.77.2c14.06 14.54-7.45 56.93 1.22 18.1.64-4.94-8.44-13.72-1.22-18.1ZM920.75 57.6c-5.96 16.87 7.73 9.6 0 0zm230.92.15c5.1 3.6-6.32 2.5 0 0zm14.4 0c4.23 2.3-4.23 2.3 0 0zm-1087.4 1c15.3 13.48 14.47 50.58 2.51 14.46-2.26-2.01-10.64-12.27-2.51-14.46Zm583.1 0c-17.54 13.91 15.3 19.2 0 0zm356.4 0c-5.95 1.11 3.95 3.86 0 0zm-376.67.45c-4.8 4.52 9.34.04 0 0zm469.85.51c6.9 3.59-6.77 2.57 0 0zm-152.89.22c-2.06 2.3 3.02 2.24 0 0zm164.6.2c10.54.42-5.35 4.74 0 0zm-108.2.03c-4.74 5.31 5.48 4.84 0 0zm-484.08.6c-10.33 26.23-.45 18.77 0 0zm438.8.37c-5.48 11.4 7.83 6.47 0 0zm197.5.62c4.23 2.3-4.23 2.3 0 0zm-14.54.35c12.15 25.11-5.5 46.6 0 0zm-70.56 1.65c7.4 6.63-8.5 7.11 0 0zm-779.02.08c-9.02-.36-3.57 14.78 0 0zm807.34.58c32.46-1.17 5.62 65.32 14.19 13.38-6.26 14.27-13.18 41.4-12.5 4.7-.24-6.04-.27-12.15-1.69-18.08zm-608.82 1.34c-4.6 5.4 2 10.44 0 0zm603.8.9c8.2 36-9.5 24.25 0 0zm-544.1 1.1c-5.71.92 3.84 3.55 0 0zm-265.39.1c-5.36-.71.54 4.3 0 0zm-5.81 2.04c-18.45-1.8-1.43 9.12 0 0zm-220.9 3.86c10.49 3.52-5.17 9.37 0 0zm1022.5 0c5.76 2.32-5.76 2.32 0 0zm-813.5 1c-8.78 2.9 6.64 3.13 0 0zm221.38.18c-2.06 2.3 3.02 2.24 0 0zm-284.5.09c-24.7-3.89-47.6 13.02-9.7 4.69-5.66 35.13 52.42 4.56 9.7-4.69zm636.16.82c-6.51 4.74 2 7.36 0 0zm182.83.52c6 8.77-12.78 8.88 0 0zm-208.38.5c-8.28 2.77 5.66 8.09 0 0zm266.4.9c4.17 7.98-3.73 7.93 0 0zm-1062 .8c11.58 19.24 55.62 100.75 40.27 85.9-18.78-25.34-40.83-52.57-40.27-85.9Zm749.12.2c-5.47 3.53 3.9 3.7 0 0zm-279.72.07c-5.25 2.8 4.23 3.66 0 0zm89 .95c-22.08 4.92-13.89 18.39 0 0zm-516.43 0c13.48 11.58 17.91 49.87 3.16 16.08l-2.7-7.81zm61.4 1.2c4.24-.15.77 3.74 0 0zm126.46.82c-9.81-1.86 2.11 6.14 0 0zm251.17 1.11c-4.7 3.77 5.1 2.26 0 0zm-460.1 1.8c21.78 11.47 39.22 88.27 11.55 34.44-6-10.6-9.67-22.43-11.55-34.44Zm446.7.5c.27 4.64.14 2.4 0 0zm-249.6.54c-2.36 3.17 4.18 1.3 0 0zm471.86.05c1.59 9.55-11.24-1.47 0 0zm-535.6.67c-4.4 4.15 15.87-2.64 0 0zm908.45.28c7.67 12.89-9.38 15.84 0 0zm-7.6 1c4.83 3.64-5.22 4.33 0 0zm-559 1c-3.96 3.67 5.56 3.57 0 0zm218.72.16c10.36 8-11.75 2.04 0 0zm-245.55 1.23c-5.06 3.03 3.28 4.33 0 0zm607.93 1.61c3.84 3.55-5.71.92 0 0zM163.8 93.54c13.65 6.33-20.05 2.79 0 0zm456.87.56c-6.13 1.2 1.4 4.69 0 0zm-93.5.65c-3.8 3.78 5 4.63 0 0zm619.7 0c2.08 5.08-7.72 1.07 0 0zm-530.6.12c-19.74 5.38-17.27 23.68 0 0zm-65.6 2.88c-4.18 1.3 2.36 3.17 0 0zm180.4 0c4.83 3.64-5.22 4.33 0 0zm352.24.25c7.8 13.52-8.8 16.78 0 0zm69.76.75c4.29 2.82-2.8 3.86 0 0zm-383.56 1.08c10.2 3.1-9.12 6.56 0 0zm-583.96.3c-6.22 2.57 5.54 2.41 0 0zm-33.17.02c6.65 2.69-5.65 3.37 0 0zm39.09.6c-7 3.06 8.92-.23 0 0zm373.7 0c-5.56 7.13 10.29 9.8 0 0zm-398.6.2c6.82-.13-3.9 1.7 0 0zm514.6.8c-5.14.36 2.18 3.97 0 0zm-131.05.03c-6.47 1.2 3.57 4.27 0 0zm119.45.47c-27.7 1 19.66 2.58 0 0zm16.02.16c-1.94 4.43 10.3-2.68 0 0zm415.99.35c8.39 5.33-6.67 9.64 0 0zm-8.93.97c8.11 12.97-5.98 7 0 0zm-80.22.13c3.26 7.18-9.85-.6 0 0zm-187.37.95c19.57 10.5-17.28 13.38 0 0zm307.73.28c3.63 12.12-10.13 4.08 0 0zm-489.75.74c-8.9-2.03-15.34 18.18-4.73 5.87zm-479.23.13c5.52 10.77-13.93 2.51 0 0zm789.56.8c4.74 10.86-16.2 12.33 0 0zm100.06.1c1.3 6.33-7.75-.03 0 0zm-211.2.05c3.64 8.5-11.7-.93 0 0zm146.03.34c3.37 7.09-5.63 8.16 0 0zm-970 .53c8.22-2.62-.34 5.76 0 0zm779.3.52c9.7 3.78-8.25 10 0 0zm99.5.45c4.23 2.3-4.23 2.3 0 0zm-302 1c-3.7 1.75 4.06 2.12 0 0zm445.2 0c4.43 6.18-6.7 3.9 0 0zm-898.63.11c1.21 5.28-6.16.42 0 0zm642.4.58c7.58 5.27-12.97 1.3 0 0zm29.12 0c6.52 6.46-12.05.12 0 0zm-43.05.37c13.51 3.85-10.67 2.43 0 0zm351.66.65c5.05 7.27-10.42 1.7 0 0zm-9.8 1.29c2.83 4.68-3.99 4.2 0 0zm-135.4 1.03c3.55 4.01-4.2 1.85 0 0zm-892.5.97c4.23 2.3-4.23 2.3 0 0zm986.4 1c4.18 1.3-2.36 3.17 0 0zm-1047.8.2c13.46 24.26 49.5 70.85 44.45 81.99-18.96-24.75-34.86-52.22-44.45-81.99Zm1035.8.09c12.86-2.78-3.45 13.33 0 0zm-914.36 1.71c4.23 2.3-4.23 2.3 0 0zm936.38.18c3.02 2.24-2.06 2.3 0 0zM843.4 118c3.8 8.59-18.26-3.57 0 0zm-685.25 1.43c-15.1-.48 7.92 4.3 0 0zm668.4.23c11.32 2.02-7.02 6.26 0 0zm264.15.09c2.36 3.17-4.18 1.3 0 0zm-273.6.16c2.03 8.12-11.35-.55 0 0zm-227 .84c-4.21 2.07 3.91 1.39 0 0zm357.74 4.5c2.72 3.94-5.1 1.93 0 0zM548.2 126.8c4.86 4.83-6.48 2.09 0 0zm60.6.05c-14.49 3.55-2.37 18.86 0 0zm-445.8 6.9c-2.36 3.17 4.18 1.3 0 0zm-8.2.37c-6.38 3.54 7.88 5.2 0 0zm590.03.1c-5.08 1.02 3.1 3.54 0 0zm15.68.53c18.42 19.61-7.82 23.73 0 0zm-601.58.04c-4.62 7.55 9.26 1.43 0 0zm547.66.1c-6.9 8.74 18.91-3.92 0 0zm-229.55.45c-5.87 1.42 4.42 3.12 0 0zm-328.94.41c-4.21 2.07 3.91 1.39 0 0zm567.9 0c-2.36 3.17 4.18 1.3 0 0zm62.55.42c29.27-6.77 7.1 19.2 0 0zm-629.16 6.6c-19.8.44 1.23 11.48 0 0zm-14.17.07c-3.71-.76 1.52 2.06 0 0zm368.82 1.44c15.5 13.8-16.9 8.9 0 0zm-365.84.56c-7.53.75 1.46 6.48 0 0zm-7.82.03c2.17 3.33 1.8 2.76 0 0zm665.55.04c34.8-.12-15.82 6.65 0 0zm-10.59.88c12.87 1.35-11.13 4.8 0 0zm-14.34.96c4.18 1.3-2.36 3.17 0 0zm-58.9 1.05c-11.05 27.82-52.02-6.89-4.93-.07l2.6.04zm-187.4.62c21.88 10.11 28 25.31 2.67 8.34-3.84-.3-10.34-7.77-2.67-8.34zm282.47 1.94c19.54 4.94-21.11 3.04 0 0zM131 151.75c-3.84 3.55 5.71.92 0 0zm661.1 0c-.34 9.85-15.87 2.5 0 0zm-279.8 5c13.34 7.13-6.14 9 0 0zm92.18.36c7.58 9.54-12.57 1.75 0 0zm-13.99.64c4.86 4.96-6.7 5.13 0 0zm201.76.21c23.42 1.32-24.54 8.37 0 0zm-124.55.35c5.57 7.73-10.56 2.48 0 0zm100.51.53c1.52 2.14-3.67-.82 0 0zm68.38.01c10.45-1.16 2.05 5.21 0 0zm-176.27 1.68c7.79 8.47-11.88 2.32 0 0zm116.89.31c1.46 2.17-3.66-.86 0 0zm-28.18.2c16.36 15.23-8.87 1.96 0 0zm-15.93.73c9.63 2.58-6.12 6.1 0 0zm-18.31.98c2.9 7.04-8.5 1.3 0 0zm-212.4.29c19.3 19.1-24.17 3.77 0 0zm204.13.11c1.69 6.44-9.31 1.34 0 0zm-12.26.55c7.29 4.9-5.66 7.13 0 0zm-176.67.05c6.14 3.04-5.93 2.5 0 0zm169.9.35c20.09 45.32 97.34-18.52 96.86 36.74 31.93 7.74-22.98 23.48 6.14 26.11-26.76-15.01-67.78 18.25-76.17-4.73-18.87-4.24 1.5-39.09-28.42-43.96l-1.26-5.97zm118.81.26c.36 20.26-28.12-2.89 0 0zm-243.1.48c1.52 2.14-3.67-.82 0 0zm116 .95c5.95 3.27-7.23 2.8 0 0zm-50.28 1.08c5.9 10.48-10.16 2.05 0 0zm149.54.06c3.02 2.28-2.08 2.27 0 0zm-221.88 1.82c5.63 2.36-7.86 2.92 0 0zm213.7.06c2.7 6.3-8.08.24 0 0zm-301.22.11c-9.84 9.4 13.23 2.8 0 0zm244.66.97c11.53 7.64-9.7 8.55 0 0zm-72.57 1.66c3.2 6.36-9.36 2.25 0 0zm27.04 1.32c7.4 7.23-11.34 4.53 0 0zm-95.79.63c16.84 1.77-7.06 7.65 0 0zm-116.08.27c-5.3 3.9 4.51 4.73 0 0zm55.2.86c22.99 5.19-16.05 12.68 0 0zm167.68.27c8.15 6.64-9.66 5.8 0 0zm-207.86 1.97c2.2 3.35 1.8 2.73 0 0zm404.2 1.16c-45.7-.35 44.72 17.26 0 0zm-271.75.19c2.35 3.42-4.91.54 0 0zm251.76.56c-8.46 1.78 2.87 7.16 0 0zm-95.48.97c-5.22 4.33 4.83 3.64 0 0zm6.74.89c-5.1 19.92 19.19 24.7 0 0zm-61.24.98c.18 5.14.15 4.24 0 0zm71.13 1.1c-9.98 8.01 9.52 12.2 0 0zm-252.2 1.08c21.85 6.91-10.9 8.65 0 0zm-31.4.13c16.14 20.25-27.45-1.5 0 0zm187.39.82c9 4.19-8.16 8.67 0 0zm-384.3 0c-4.8 13.03 7.32 12.6 0 0zm487.8 0c4.18 1.3-2.36 3.17 0 0zm-471.95.94c-7.93 16.53 5.87 8.36 0 0zm531.22.47c15.2 9.66 24.59-5.65 0-.01zm-172.06.59c2.62 4.61-5.74 2.09 0 0zm81.9 0c-3.7 1.75 4.06 2.12 0 0zm-59.8 1c11.13 10.75-11.98 5.35 0 0zm21.26.34c-3.16 4.24 5.93.6 0 0zm156.99.11c5.6 9.96 20.57-1.84 0 0zm-108.04.8c-4.77 11.86 9.62 4.1 0 0zm-422.8.08c-4.27 2.55 2.03 5.34 0 0zm413.49.62c-3.45 11.78 11.1 8.83 0 0zm138.44.61c-5.08 7.1 13.18 2.83 0 0zm-207.82 2.48c5.91 11.61-9.87 3.34 0 0zm-179.95 1.65c44.05 18.67-35.45 8.52 0 0zm-164.88.31c-2.36 3.17 4.18 1.3 0 0zm395 0c-2.36 3.17 4.18 1.3 0 0zm120.94.22c16.95 9.9 24.43-4.78 0 0zm-11.13.17c-20.97 6.23 16.13 2.61 0 0zm38.01 1.08c-5.08 1.02 3.1 3.54 0 0zm-51.22.53c-5.76 2.32 5.76 2.32 0 0zm55.5 0c-4.21 2.07 3.91 1.39 0 0zm-190.48.75c5.32 6.9-12.03 1.83 0 0zm208.79 1.36c9.79 33.3 30.05 17.29 0 0zm-146.93 2.07c-2.08 2.27 3.02 2.28 0 0zm-432.14.47c.47 11.83 11.01 1.54 0 0zm361.43.46c11.73 7.57-13.2 9.33 0 0zm-203.97.22c45.3 17.64-6.82 31.53-7.21 1.91zm-179.13.68c4.74 17.67 14.53 5.1 0 0zm48.65.05c3.23 4.03 2.69 3.35 0 0zm429.27.94c-5.4 1.15 5.73 2.1 0 0zm-104.8.03c3.43 7.76-10.54 5.66 0 0zm-153 .03c27.94 1.37-17.32 10.86 0 0zm173.11.94c12.34 5.7-8.54 14.03 0 0zm-244.79 1.09c-13.95 5.41 11.36 12.06 0 0zm429.03 1.3c-21.2 4.96 22 2.16 0 0zm23.96 1.61c-6.06 1.54 5.66 1.81 0 0zm-356.72.89c2.69 5.55-7.2-.15 0 0zm-183.6.32c3.18 9.98 20.87-.62 0 0zm513.33.79c-4.67 3.1 4.4 2.58 0 0zm-161.73.02c-10 5.96-3.62-4.83 0 0zm-234.97.32c-6.28 1.64 3.24 3.33 0 0zm210.3.66c13.66 9.73-12.95 10.49 0 0zm-198.6 1c-4.29 2.82 2.8 3.86 0 0zm391 1c-.21 9.21 15.45.57 0 0zm-506.57.02c5.21 11.98 10.01-1.2 0 0zm325.46 0c6.53 8.9-9.5 3.08 0 0zm-282.48.98c-3.84 3.55 5.71.92 0 0zm259 0c6.89 3.8-5.71 4.61 0 0zm224.09 1c-5.1 9.86 20.4 2.03 0 0zm-80 .41c-2.6 8.24 9.38 2.26 0 0zm-386.6.59c-2.36 3.17 4.18 1.3 0 0zm141.74.11c-.65 6.57-10.22 4.54 0 0zm117.71 3.05c9.71 7.27-9.4 10.98 0 0zm60.25.84c-5.71.92 3.84 3.55 0 0zm72.11.34c-3.76 4.92 3.23 5.27 0 0zm-379.32 1.66c-2.36 3.17 4.18 1.3 0 0zm237.17.58c6 8.87-11.69.06 0 0zm234.86.45c-8.48 8.44 10.37 18.3 0 0zm-505.17.1c28.43 29.28-17.68 23.56 0 0zm132.98.32c8.16 7.23-11.4 2.99 0 0zm249.07.87c22.64 22.5 35.98 100.72-14.32 80.76-34.65-29.06-39.37-86.52 13.87-80.3zm-275.4.18c12.91 4.06-18.62 5.6 0 0zm208.1.5c-4.21 2.07 3.91 1.39 0 0zm32.6 0c2.36 3.17-4.18 1.3 0 0zm3.7 0c5.63 2.49-9.18 2.37 0 0zm129.1 0c-2.5 5.49 3.52 5.85 0 0zm-49.1 1.4c-5.76 3.43 6.74 2.53 0 0zm-199.61 1.21c.5 5.42-5.84 1.15 0 0zm-314.1.39c-4.18 1.3 2.36 3.17 0 0zm550.4 2c-4.4 2.58 4.67 3.1 0 0zm-171.8 1c16.3 8.68-5.47 20.46 0 0zm-11.2.05c9.37 5.26-7.07 14.24 0 0zm-325.37.09c-4.75 9.68 10.64-.52 0 0zm117.18.86c21.62 15.86-25.81 4.09 0 0zm196.83 1.09c10.15 1.04-6.16 8.38 0 0zm-49.28.33c12.36 1.98-6.04 7.8 0 0zm244.16.64c-4.02 3.22 3.14 4.48 0 0zm-141.85.08c.49 7.72-7.72.25 0 0zm155.63.2c-6.28 1.64 3.24 3.33 0 0zm-306.7.66c2.36 3.17-4.18 1.3 0 0zm63.78 1.18c3.02 2.24-2.06 2.3 0 0zm214.22.82c-6.72 14.34 5.15 8.41 0 0zm-278.6 1c4.23 2.3-4.23 2.3 0 0zm71.6 0c2.36 3.17-4.18 1.3 0 0zm-36.6.7c6.9 17.7-13.81 54.83-5.55 15.1 1.35-5.22 3.62-10.1 5.55-15.1zm-189.38.5c31.46-2.63-5.8 22.12 0 0zm80.18.8c14.06 8.95-16.55 5.83 0 0zm367.56 0c-7.3 5.44 4.64 9.22 0 0zm-324.87.16c9 9.64-13.55 4.7 0 0zm81.32.84c2.75 17.79-14.29 49.31-7.49 13.62.04-5.31 2.48-11.21 7.49-13.62zm67.13.09c13.74 10.76-6.63 14.03 0 0zm-176.73.91c8.65 3.86-14.03 1.48 0 0zm99.97.09c8.15 18.78-16.4 17.96 0 0zm15.33.2c1.37 31.94-13.97 30.52 0 0zm73.04.74c12.46 5.58-9.6 5.6 0 0zm-67.54.05c10.34 3.13-7.45 7.37 0 0zm-103.01 2.92c.33 9.73-11.2-.82 0 0zm64.1 0c3.9 7.9-7.25 9.78 0 0zm85.5 1c3.84 3.55-5.71.92 0 0zm25.02 1.1c10.15 5.9-7.42 13.78 0 0zm-332.5.45c34.75 18.13-24.46 13.61 0 0zm78.47.44c30.09-2.63-1.55 21.67 0 0zm-203.5.01c9.22 26.35 36 26.28 5.12 4.41zm654.12 0c-9.17 25.68 2.97 40.71-.57 6.05zm-220.86.3c4.97 2.78-4.53 4.23 0 0zm-48.33.71c4.84 11.81-10.77 16.78 0 0zm-241.83.34c31.32 12.14-17.22 18.2 0 0zm16.52.75c26.88 7.2-8.11 21.43 0 0zm19.92.33c33.04-.18-1.08 28.18 0 0zm269.98.57c24.66 16-.88 31.84 0 0zm-351.1.1c-5.66 18.05 21.03 3.67 0 0zm292.5 1.9c4.23 2.3-4.23 2.3 0 0zm7 0c3 27.56-22.7 29.93 0 0zm-164.9.05c-8.32 11.83-10.69-1.68 0 0zm117.19.72c8.32 11.5-8.52 3.61 0 0zm54 1.33c3.17 21.64-13.15 33.75 0 0zm-217.8.9c-4.23 2.3 4.23 2.3 0 0zm108.12.4c.17 14.38-16.22 1.7 0 0zm9.69.99c4.68 8-8.78 4.42 0 0zm159.17.91c6.24 4.4-2.5 7.85 0 0zm-101.6.7c3.12 10.24-5.52 5.02 0 0zm-17.9 1c4.4 2.58-4.67 3.1 0 0zm-85.6.2c8.86 4.7-10.23 3.78 0 0zm-12.8.2c8.34 15.55-21.26-2.07 0 0zm165.4.6c8.43 23.74-16.74 28.01 0 0zm-281.42 2.35c36.92 8.42-12.43 28.53 0 0zm-391.57.65c4.23 2.3-4.23 2.3 0 0zm606.3 0c8.06 15.6-6.78 10.84 0 0zm95.25.4c7.4 2.82-4.95 7.25 0 0zm-361.49.1c-.65 5.4 6.92-2.8 0 0zm199.38 0c2.63 8.76-16.32-3.14 0 0zm169.32.37c13.68 3.08-4.35 9.5 0 0zm-342.03.07c-6.57 7.6 9.76 3.83 0 0zm42.83 1.03c31.86 12.41-7.9 21.24 0 0zm53.66.3c34.95 9.45-22.17 15.6 0 0zm-30.42.47c30.26 8.62-13.6 15.93 0 0zm295.7.26c8.18 13.1-13.09 10.32 0 0zm-48.11.18c3.02 2.24-2.06 2.3 0 0zm-36.93 2.1c7.4 10.23-11.19 12.91 0 0zm-332.15.72c1.06 12.05 17.18.97 0 0zm369.04 1.22c2.67 4.08-6.38 3.16 0 0zm217.04.12c12.54 3.33-11.08 6.05 0 0zm-187.77 1.66c5.1 3.6-6.32 2.5 0 0zm21.65 2.1c8.88 5.27-6.2 15.03 0 0zm-19.89.29c12.19 9.43-6.62 7.83 0 0zm-417.85 1.61c-4.34 3.9 5.68 1.64 0 0zm-25.9 1c-.57 7.35 10.64 2.4 0 0zm250.66.09c6.92 18.28-24.27-1.3 0 0zm382.2.27c4.51 12.25-16.2.38 0 0zm-398.53.35c5.65 15.63-22.56-2.13 0 0zm121.5.09c10.3 8.34-8 4.93 0 0zm-325.74.2c-11.8 1.6 6.32 3.6 0 0zm76.7.1c35.6.18 16.51 37.9 0 0zm350.9.4c13.92 7.1-10.8 8.24 0 0zm-69.25.53c3.72 4.58-3.82 5.44 0 0zm-209.05.97c4.23 2.3-4.23 2.3 0 0zm215.22.04c5.24 5.59-8.36 2.52 0 0zm-17.95.04c4.3 3.64-5.19 2.81 0 0zm-110.81.45c13.39 2.83-9.91 8.1 0 0zm185.94.47c14.53 10.9-10.27 6.12 0 0zm-313.68 2.77c19 14.05-15.38 10.55 0 0zm331.83.54c7.1 11.38-11.57 11.97 0 0zm-128.64.69c5.16 3.63-5.38 2.26 0 0zm-332 .4c-4.03 4.14 12.32 1.96 0 0zm179.64.69c11.12 13.53-17.82-3.53 0 0zm-27.54.24c35.28 5.21-11.42 25.8 0 0zm472.04.24c-11.6 30.38-25.88 11.28 0 0zm-429.22 1.23c22.04 10.61-21.71 8.35 0 0zm-153.5 1.13c5.62 19.35 23.63 1.33 0 0zm410.08 1.07c2.75 6.91-8.1.79 0 0zm-388.76.4c-4.1 4.03 5.21 1.82 0 0zm543.43.67c11.83 12.15-19.79-.06 0 0zm-521.15.98c38.82 1.44 9.04 41.54 0 0zm380.2.18c20.96 6.34 29.53 30.37 3.41 12l-1.91-3.72zm-451.73.9c3.36 14.85 19.67 1.18 0 0zm441.22.87c3.56 4.51-6.99-.31 0 0zm-191.6 1.3c10.04 3.27-10.5 4.01 0 0zm-34.49.5c26.5 5.8-20.21 14.9 0 0zm127.49.2c4.73 3.38-4.73 3.38 0 0zm-389.88 2.55c-2.78 14.34 16.82 3.08 0 0zm147.02.69c36.73 1.19 7.58 33.9 0 0zm254.08.74c4.65 5.18-7.46 1.42 0 0zm-343.21.23c3.07 12.58 18.63-1.04 0 0zm189.8.04c20.55 9.55-19.57-1.24 0 0zm-261.94 2.76c8.65 27.82 32.08 20 0 0zm497.9.76c5.41 4.77-7.8-.18 0 0zm131.33.23c2.18 3.97-5.14.36 0 0zm12.1 0c1.08 4.9-5.61.82 0 0zm-454 1c26.71 2.92 6.9 21.76 0 0zm380.8 0c-3.7 1.75 4.06 2.12 0 0zm-352.19.35c4.5 5.17-10.12-.57 0 0zm10.58.06c33.13 9.5-24.3 17.96 0 0zm-106.6.9c37.33 4.55 7.8 36.66 0 0zm217.54.05c6.54.3-2.4 5.28 0 0zm41.25.3c29.54 8.64 16.61 14.06-8.96 11.04-12.12-3.1 5.42-10.4 8.96-11.04zm-56.58.34c4.23 2.3-4.23 2.3 0 0zm281.3 0c4.06 6.46-11.93-.33 0 0zm9.7 0c3.91 1.39-4.21 2.07 0 0zm-591.36.24c.86 4.64.52 2.82 0 0zm540.66.76c4.28 2.9-9.14.77 0 0zm-203 .1c-.85 21.75-26.68 9.53 0 0zm-318 .92c-4.34 5.02 4.62 5.59 0 0zm539.61.48c.71 11.1-12.89.96 0 0zm82.42.86c-3.33 3.4 5.17 1.38 0 0zm-245.02.64c.52 10.03-17.2 5.87 0 0zm-112.51 1c-.24 13.2-15.9 3.03 0 0zm-60.93.04c9.57.24-6.34 4.53 0 0zm-99.58.41c45.53 3.65 3.53 32.37 0 0zm262.81.55c2.94 6.05-8.2.98 0 0zm106.9 0c3.91 1.39-4.21 2.07 0 0zm-736.63.46c11.52 11.32 44.01 67.62 14.91 28.82-1.84-10.76-19.48-16.87-14.91-28.82Zm648.01.66c6.44 18.69-22.05 9.45 0 0zm6.54.83c6.77 16.68-20.54 9.7 0 0zm-160.04.4c-1.08 17-19-1.71 0 0zm293.22.65c2.18 3.97-5.14.36 0 0zm-23.15 2.54c25.5-4.5-1.59 9.98 0 0zm-126.65.46c1.43 5.94-7.26 2.98 0 0zm-242.1.47c26.84-6.63 13.58 27.64 0 0zm359.1.2c9.08 9.42-11.02 5.59 0 0zm91.3.33c3.84 3.55-5.71.92 0 0zm-547.45.1c.27 19.72 24.1-2.49 0 0zm612.1.05c-2.29 13.4 9.54 38.6 3.69 9.74zm-437.8.19c.01 9-15.77-6.7 0 0zm92.35.66c2.96 31.01-10.33 35.98 0 0zm14.02.05c2.16 22.58-14.67 26.78 0 0zm6.82.03c-2.3 8.14-2.59 60.56-7.74 30.02-9.8 31.26 5.88-28 4.95-25.43zm5.89 0c26.7 24.96-12.27 69.6-4.26 20 1.08-6.7 1.5-13.7 4.26-20zm-261.96.37c41.65-.8 5.24 28.42 0 0zm99.66.55c24.83-4.98 3.6 17.24 0 0zm313.93.25c6.2 2.52-5.54 4.26 0 0zm-85.67.14c4.1 2.11-4.02 2.12 0 0zm7.91.61c9.49.72-6.9 3.7 0 0zm161.4 1.1c-5.54 7.84 13.92-2.2 0 0zm29.2.9c-3.7 1.75 4.06 2.12 0 0zm49.4.08c-4.71 3.95 4.6 4.93 0 0zm-94.56 0c-.3 5.45-6.49-2.22 0 0zm-131.31.34c-1.9 4.23-.98 2.17 0 0zm-15.85 1.97c4.83 6.97-10.99-.8 0 0zm-9.03.67c8.03 7.09-10.24 4.47 0 0zm-210.65.14c4.84.69-4.37 1 0 0zm-84 2.01c23.01.7-3.51 17.02 0 0zm-85.4.54c35.07-.75 10.44 31.26 0 0zm631.4.25c-3.7 1.75 4.06 2.12 0 0zm-297.76.13c15.2 11.25-1.8 51.27-1 15.2-4.29 56.71-11.78-1.03 1-15.2zm-38.58.06c5.52 7.5-7.07 4.2 0 0zm256.51.28c-4.57 6.9 17.95-.28 0 0zm-231.12.54c-7.9 21.95 2.55 17.53 0 0zm64.26.88c4.14 16.55-7.23 5.59 0 0zm-274.62.4c19-6.16 1.79 15.14 0 0zm237.52.71c4.23 24.92-13.27 40.39-2.44 5.85zm-205.81.04c28.42-3.93.03 17.75 0 0zm387.6.08c1.76 6.75 8.97 3.7 0 0zm-342.82.26c16.15 1.1-10.21 8.16 0 0zm203.06.63c6.9 6.55-7.95 9.9 0 0zm206.26.99c-4.37 3.37 4.37 3.37 0 0zm35.5 0c-4.73 3.38 4.73 3.38 0 0zm-191.35.05c-2.22 6.93 8.56-1.32 0 0zm-672.14.39c17.66.8 4.08 19.94 0 0zm585.78 1.14c6.7 8.3-15.58 10.78 0 0zm44.6.42c4.18 1.3-2.36 3.17 0 0zm6.36 0c8.7 2.87-3.37 7.18 0 0zm-383.18.36c31.79.13 21.72 33.66 0 0zm45.35.08c22.21-3.26 11.59 16.53 0 0zm92.2.56c5.84 4.16-7.23 2.02 0 0zm-180.36.33c8.81 1.93-3.27 7.37 0 0zm380.95 0c5.84 14-11.1 14.35 0 0zm-65.87.2c5.95 16.39-8.63 20.14 0 0zm242.26.82c-6.13 1.2 1.4 4.69 0 0zm-443.07.78c14.42-.35-1.22 12 0 0zm274.56.25c8.66 31.31-16.06 24.28 0 0zm65.92.62c-8.58 7.5 7.52 19.17 0 0zm175 0c-5.22 4.33 4.83 3.64 0 0zm-623.3 1.15c13.23 4.51-5.51 8.28 0 0zm396.3.85c5.6 9-9.6 11.3 0 0zm15 .03c9.64 18.97-9.26 66.15-4.95 19.65 1.7-6.29-.13-14.42 4.95-19.65zm-274.84-2.6c28.28-9.14 11.3 17.69 0 0zm-130.67 4.02c.24 4.64.12 2.4 0 0zm57.8.96c29.61-3.44 21.45 23.85 0 0zm455.7 1.59c-3.7 1.75 4.06 2.12 0 0zm104 1c-4.21 2.07 3.91 1.39 0 0zm-590.98.09c23.12 2.78 21.84 27.97 0 0zm453.53.23c-4.57 3.65 4.84 4.48 0 0zm-9.89.08c-4.46 11.06 5.9 16.21 0 0zm-8.16.6c-4.37 3.37 4.37 3.37 0 0zm-103.2.37c7.92 11.17-9.98 18.49 0 0zm-262.82 2.73c28.97-2.52-.51 15.68 0 0zm552.7.3c-5.07 3.05 3.28 4.3 0 0zm-187.48.6c-5.7 5.99 5.84 6.5 0 0zm-163.4.3c6.36 5.92-7.07 4.64 0 0zm91.9.7c4.31 11.69-8.9 10.8 0 0zm215.18.18c-2.06 2.3 3.02 2.24 0 0zm-194.92.16c5.93.6-3.16 4.24 0 0zm-285.76.66c6 6.04-11.77-.73 0 0zm315.57.35c-5.3 4.76 6.35 3.47 0 0zm-387.08.06c18.8 2.19 4.23 17.39 0 0zm-2.82.57c1.56 3.51-6.61-.98 0 0zm119.74.06c32.4-1.67-20.17 8.67 0 0zm76.77.02c11.09 10.84-10.62 13.42 0 0zm-115.64 1.3c29.1-.53-13 8.91 0 0zm56.34.1c12.72-4.65-1.85 6.84 0 0zm-112.35 1.61c16.93-6.33 4.52 9.99 0 0zm377.38.93c-4.18 1.3 2.36 3.17 0 0zm-148.69 0c4.55 4.32-6.35 1.68 0 0zm343.75.13c-9 6.33 5.85 18.3 0 0zm-414.91.03c15.52 9-8.76 13.84 0 0zm-200.68.93c15.97 1.17-2.8 10.51 0 0zm362.42.75c.17 4.93.13 3.62 0 0zm-170.7.26c5.6 11.5-13.64 1.38 0 0zm-444.43.07c16 2.24 1.96 18.04 0 0zm631.23 1.83c2.36 3.17-4.18 1.3 0 0zm42.1 0c-10.9 12.21 4.54 10.4 0 0zm-91.96.08c-.77 4.55-5.26.81 0 0zm140.84.32c-4.72 4.8 3.76 3.32 0 0zm-410.46.7c1.45 2.15-3.67-.89 0 0zm5.2.48c19.17 1.41-9.43 4.2 0 0zm86.29.56c8.3 6.85-9.83 1 0 0zm-136.21.86c4.18 1.3-2.36 3.17 0 0zm262.5 1c4.18 1.3-2.36 3.17 0 0zm-93.73.54c11.57 6.79-6.46 9.3 0 0zm-162.17.46c9.44 4.44-11.6 1.7 0 0zm335.6 0c2.64 5.21-5.11 4.12 0 0zm-246.68.18c1.69 7.2-13.19-4.22 0 0zm-82.33 1.12c11.26.3-2 8.88 0 0zm257.8.7c4.18 1.3-2.36 3.17 0 0zm-592.7.06c25.29 11.44-.88 31.11 0 0zm481.9 1.12c9.97 14.63-16.58 4.18 0 0zm-135.4.82c1.08 4.9-5.61.82 0 0zm575.21 1.48c-7.96 1.65 2.92 5.7 0 0zm-416.9.57c16.56 12.33-7.45 13.92 0 0zm-454.17 1c19.08 6.27 14.89 30.63 0 0zm656.76.04c17.57 3.43-5.12 9.83 0 0zm-242.27.96c7.57 3.66-6 4.7 0 0zm52.68.02c10.95 7.33-8.27 6.27 0 0zm-80.8.03c1.15 4.9-5.82-1.3 0 0zm-64.28.16c12.65-2.4 4.11 10.18 0 0zm352.75.13c-6.29 8.86 5.7 10.9 0 0zm-337.81.71c18.86-7.2-3.18 10.75 0 0zm10.55.45c5.98 2.82-6.63 2.5 0 0zm264.68.26c4.8 7.93-4.39 17.3 0 0zm-188.65.6c17.8 19.84-8.98 29.35 0 0zm433.98.75c.75 9.06-11.21-.3 0 0zm-173.32.84c-4.18 1.3 2.36 3.17 0 0zm-64.51 1c3.84 3.55-5.71.92 0 0zm-80.82.08c4.3 3.64-5.19 2.81 0 0zm-145 1c4.3 3.64-5.19 2.81 0 0zm320.24.5c.14 6.29.2 8.76 0 0zm-277.19.33c15.44 14.02-8.72 22.47 0 0zm105.8.12c2 5.69-7.7.34 0 0zm-62.3 1c10.22 3.74-8.25 8.57 0 0zm-73.74.05c19.16 8.61-12.67 17.8 0 0zm213.1.98c4.75 6.19-7.78-.07 0 0zm36.14.25c16.87 4.3-11.16 14.76 0 0zm-317.5.27c-6.46 14.51 10.08 4.3 0 0zm529.19.42c4.23 2.3-4.23 2.3 0 0zm-402.3.16c11.26 19.11-16.56 10.79 0 0zm-12.99.01c9.27 13.05-11.44 13.2 0 0zm-331.75.31c15.07 35.76-23.24 37.21-4.44.44l1.93-.8zm203.03.52c-11.27 11.55 13.68 5.2 0 0zm310.4 0c6.99-.31-3.56 4.51 0 0zm225.04.27c-1.28 13.02-14.85 4.2 0 0zm-464.68.35c13.15 9.14-16.27 1.47 0 0zm-28 .48c-3.2 5.68 7.25-.72 0 0zm275.97.37c3.1 3.54-5.08 1.02 0 0zm-24.32.53c4.18 1.3-2.36 3.17 0 0zm-656.8 1c2.36 3.17-4.18 1.3 0 0zm713.6 1c-5.81 1.85 3.15 4.34 0 0zm-61.6 1c3.84 3.55-5.71.92 0 0zm13.78.18c3.02 2.24-2.06 2.3 0 0zm-290.38 1.01c-8.01 2.79 5.26 3.82 0 0zm-347.1 1.81c4.18 1.3-2.36 3.17 0 0zm381.7 0c20.65 19.09-23.82 97.95-9.44 38.13 3.37-12.64 8.46-24.96 9.44-38.13zm48.5 0c10.22 33.85-9.65 36.92 0 0zm222.9 0c5.98 4.06-3.57 8.98 0 0zm-7.5 1.06c-1.67 3.49-1.48 3.09 0 0zm-245.9 2.94c19.17 22.33-24.71 24.9 0 0zm6.78.18c3.02 2.24-2.06 2.3 0 0zm7.17.82c23.27 23-16.92 35.18 0 0zm247 .4c1.47 4.73-5.77 1.08 0 0zm-188.8.62c16.12 9.25-12.67 17.94 0 0zm197.02.06c8.67 2.39-8 5.78 0 0zm105.32.01c14.94.57-7.27 10.32 0 0zm-93.08 2.09c10.47 8.63-12.07 3.1 0 0zm-221.6.21c13.12 10.1-8.65 15.36 0 0zm400.09.61c-16.8 20.7-32.7 8.07 0 0zm-672.43.58c30.76 10.79-24.5 22.6 0 0zm25.23.42c15.57 14.42-19.86 14.6 0 0zm370.2 0c.5 29.46-25.11 36.27-8.19 4.16l3.54-2.97zm-136.34.15c13.84 18.02-10.33 28.54 0 0zm-163.72 1.19c2.43 5.43-7.55 1.89 0 0zm-302.96.42c31.76 15.6-5.81 28.07 0 0zm519.82.24c11.29 10.45-10.37 16.52 0 0zm314.49.06c-.5 6.13-6.87.01 0 0zm-296.2.8c12.12 9.73-2.33 18.47 0 0zm78.57.45c-1.4 22.67-23.79 18 0 0zm100.84.36c-5.53 11.8-17.47-2.84 0 0zm-548.38.77c11.1 3.76-2.65 18.36 0 0zm390.98.56c2.36 3.17-4.18 1.3 0 0zm61.33.84c12.04 6.14-12.15 5.29 0 0zm-592.03.16c23.62 6.9-.18 20.45 0 0zm128.1 1.3c17.1 11.67-12.46 15.13 0 0zm372.47.05c10.41 8.85-6.77 8.34 0 0zm-74.6.34c7.28 4.23.04 11.8 0 0zm56.83.46c8.84 12.84-9.19 7.58 0 0zm-11.21.28c13.66 6.7-7.44 14.73 0 0zm346.75 0c5.1 12.4-16.14 3.34 0 0zm-598.97.03c15.61 20.59-22.9 16.9 0 0zm301.64.42c14.33 7.46-1.1 9.4 0 0zm-199.71.12c11.42 26.63-17.85 42.2-2.66 8l2.66-8zm138.4 0c14.22 8.28-4 18.36 0 0zm140.9 0c2.69 7.33-7.42-.23 0 0zm-437.28.08c16.17 14.87-16.3 11 0 0zm628.24 1.93c4.06 8.33-17.82-1.57 0 0zm-51.33.05c15.02 1.9-8.85 10.35 0 0zm-500.82.94c20.55 30.07-29.14 21.21 0 0zm364.7 0c4.23 2.3-4.23 2.3 0 0zm62.74.4c17.31-6.36-.64 8.4 0 0zm66.16.08c-2.3 10.6-18.87-1.45 0 0zm-12.74.22c-2.95 11.43-19.98-2.17 0 0zm-134.16.3c6.43 24-14.93 29.06 0 0zm-392.7.03c21.4 5.85-6.33 17.95 0 0zm365.8.97c.27 25.99-6 41.36-4.24 6.26l1.2-3.76zm51.8 0c9.49.72-6.9 3.7 0 0zm9 1c1.48 6.63-8.85-1.15 0 0zm-26.03.1c12.31 4.57-8.99 5.81 0 0zm-207.68.4c12.96 23.06-16.13 31.29 0 0zm314.24.78c12.5 4.26-9.9 2.35 0 0zm-128.84.72c13.5 11.84-5.38 13.33 0 0zm-120.7.06c9.44 6.95-7.5 6.53 0 0zm173.11.04c9.65-.29-2.47 7.32 0 0zm-666.48.08c18.63 8.97 4.99 25.58 0 0zm191.57.82c23.95 6.86-5.83 19.08 0 0zm186.98.15c14.01 31.05-22.67 42.32 0 0zm266.02.85c5 6.24-17.98 5.45 0 0zm29.9 0c5.1 3.3-2.59 7.46 0 0zm-280.05 1.06c9.76 29.41-22.33 35.03 0 0zm-232.29.12c8.58 1.67-3.63 5.18 0 0zm494.62.12c7.21 4.33-5.25 7.42 0 0zm-130.97.27c8.3 9.66-8.39 16.72 0 0zm154.8 1.43c3.84 3.55-5.71.92 0 0zm-46.5 1c3.68 22.65-11.52 18.3 0 0zm-99.65.06c6.92 10.3-10.88 6.64 0 0zm-65.45 0c6.05 5.86-5.28 3.1 0 0zm-212.15.4c17.49 7.83-14.27 14.81 0 0zm187.91.24c18.84 25.45-23.14 47.69-3.18 10.46-.64-3.62-3.77-11.13 3.18-10.46zm-266.38.3c4.18 1.3-2.36 3.17 0 0zm118.1 0c4.23 2.3-4.23 2.3 0 0zm103.9 0c5.71.92-3.84 3.55 0 0zm144.4.09c8.35 5.37-4.63 17 0 0zm-84.83.37c17.58 17.48-11.16 22.02 0 0zm-115.67.54c13.15 17.04-14.51 24.52 0 0zm8.2 0c3.91 1.39-4.21 2.07 0 0zm225 0c2.23 5.72-6.05 2.29 0 0zm63.5 0c2.64 11.84-7 34.52-2.92 8.72zm-138.49.97c13.75 10.45-8.92 17.25 0 0zm171.6.03c3.84 3.55-5.71.92 0 0zm14.52.1c1.45 2.15-3.67-.89 0 0zm-505.64.38c7.78 1.43-4 5.57 0 0zm497.13.42c.88 18.43-9.5 9.43 0 0zm-111.61.1c10.5 8.76-8.22 8.02 0 0zm299.9 0c-2.36 3.17 4.18 1.3 0 0zm-257.3 1c2.36 3.17-4.18 1.3 0 0zm-390.25.3c6.04-.48.27 4.38 0 0zm-5.36.7c3.91 1.39-4.21 2.07 0 0zm362.4 0c4.18 1.3-2.36 3.17 0 0zm68.9 0c9.31 4.03-7.3 5.5 0 0zm234 0c-11.88 29.37 10.24 31.6 0 0zm-586 .17c18.6 20.95-26.5 6.77 0 0zm197.1.83c13.34 11.1-5.07 12.3 0 0zm-287.16.36c27.36 4.77-5.83 17.82 0 0zm-56.34.64c4.18 1.3-2.36 3.17 0 0zm178 0c4.18 1.3-2.36 3.17 0 0zm337.2 0c2.61 5.04-6.57 1.05 0 0zm20.83.09c8.81 4.58-9 5.68 0 0zm-203.43.37c.24 4.64.12 2.38 0 0zm35.33 1.63c10.9 3.11-5.9 6.5 0 0zm203.48.25c-6.28 1.64 3.24 3.33 0 0zm-391.8.66c5.63 2.36-7.86 2.92 0 0zm284.1 0c2.36 3.17-4.18 1.3 0 0zm101.8 0c-3.7 3.48 5.45-.02 0 0zm-60.17.14c4.35 16.3-12.86 21.78 0 0zm-380.9.19c11.46 9.26-14.7 8.02 0 0zm285.65.2c6.12-.1-2.49 5.2 0 0zm101.74.47c7.63 3.7-4.5 5.46 0 0zm-422.84.98c23.04 1.44 3.25 10.54 0 0zm75.63.11c9.75 21.6-26.12 6.72 0 0zm355.77.52c5.9 10.23-11.8 13.1 0 0zm-520.8.73c5.91.65-3.2 4.2 0 0zm-115.06.66c4.29 2.82-2.8 3.86 0 0zm122 0c4.18 1.3-2.36 3.17 0 0zm553.7 0c-5.71.92 3.84 3.55 0 0zm-25.95.34c4.89 12.77-13.63 10.75 0 0zm154.51.12c-10 9.39 5.75 12.59 0 0zm-275.86.03c7.24 2.43-6.36 5.72 0 0zm-85.85.04c12.04 9.46-8.1 16.83 0 0zm169.25.47c6.7 7.55-5.92 5.95 0 0zm-318.96.63c19.21 21.42-19.29 14.02 0 0zm298.16.4c3.7 4.74-4.7 3.99 0 0zm-200.25.98c10.56 33.9-21.06 21.43 0 0zm123.3.35c13.31 12.49-5.84 10.06 0 0zm-36.18.09c8.49 1.04-3.05 6.74 0 0zm-473.56.65c18.41 3.6 2.82 21.24 0 0zm465.85 0c13.03 10.5-10.43 15.4 0 0zm-280.24.25c26.98 3.76-4.56 18.04 0 0zm551.6.32c-3.78 18.81 3.97 35.08.86 6.06zm-193.92.33c3.91 1.39-4.21 2.07 0 0zm124.7 0c-7.81-.27 2.7 4.27 0 0zm-710.3 1c6.07 1.04-2.26 4.94 0 0zm150.2 0c2.8 3.86-4.29 2.82 0 0zm513.92.05c-.17 5.81-6.44 1.42 0 0zm-167.52.04c13.24 7.44-6.04 9.34 0 0zm369.26.3c-7.99 5 6.23 10.83 0 0zm-708.83.65c7.87.8-4.8 4.09 0 0zm417.74.19c9.84 5.39-3.84 19.81 0 0zm-228.71.5c14.92 13.5-19.16 12.6 0 0zm-192.86.27c3.84 3.55-5.71.92 0 0zm614.8 0c-3.7 3.48 5.45-.02 0 0zm-249.9.17c13.21 15.46-4.5 8.51 0 0zm-424.58.01c9.16.99-7 3.1 0 0zm437.34.07c10.39 4.19-6.28 11.7 0 0zm55.86.33c15.95 9.45-4.55 11.55 0 0zm-127.72.12c18.78 10.75-9.64 24.64 0 0zm-194.24.33c5.38 3.92-2.13 5.64 0 0zm29.4 0c11 4.77-10.42 5.51 0 0zm-77.06.52c15.57-1.2-2.06 10.67 0 0zm572 .8c-4.32 10.38 6.2 7.77 0 0zm-223.4.07c4.76 1.23-2.65 3.6 0 0zm-310.27.48c16.73.92 1 13.75 0 0zm106.44.16c10.3 15.7-11.76 18.39 0 0zm-54.15 1.69c15.47 4.2-9.76 9.39 0 0zm-206.22.25c5.14.36-2.18 3.97 0 0zm569.6 0c5.24 9.5-10.4 15.63 0 0zm37.5 0c-4.73 3.38 4.73 3.38 0 0zm-423.64.02c6.65 26.74-31.6 4.13 0 0zm553.64.98c-13.55 18.78 2.97 33.7 0 0zm-731.4 1c2.36 3.17-4.18 1.3 0 0zm3.3 1c7.33-.66-4.99 3.43 0 0zm547.73 1.47c.2 4.2-4.9-.71 0 0zm-333.28.18c13.37 7.44-11.35 12.54 0 0zm-295.35.35c23.02 7.15 3.85 19.36 0 0zm801.25.03c-5.3 3.9 4.52 4.73 0 0zm-599.38.97c21.44-2.86 6.32 18.24 0 0zm18.14 0c13.6 1.6-5.22 8.3 0 0zm519.38.18c-2.08 2.27 3.02 2.28 0 0zm-292.33.82c14.94 9.77-6.22 8.4 0 0zm17.64 0c8.64 9.02-4.08 18.01 0 0zm48.3 0c13.05 10.54-6.19 14.68 0 0zm69.69.05c8.11-.85-1 6.4 0 0zm-450.2.25c5.56 1.96-5.56 1.96 0 0zm434.55.7c11.4 2.32.94 18.5 0 0zm-88.55 0c11.18 15.1-7 9.22 0 0zm210.1 0c-4.18 1.3 2.36 3.17 0 0zm163.4 1c-7.1 4.03 6.28 9.82 0 0zm-328.18 0c9.28 5.34-5.32 10.33 0 0zm256.06.16c-4.7 3.82 5.11 2.23 0 0zm-179.52.26c11.77-.73-5.1 6.27 0 0zm-288.3.6c12.63 10.34-13.11 10.76 0 0zm13.7.08c-.06 3.62-4.16-.26 0 0zm209.7.24c5.93.6-3.16 4.24 0 0zm11.44.66c16.76 6.03-3.68 11.81 0 0zm12.5.16c13.94 16.25-6.27 10.87 0 0zm-58.1.04c9.78 6.7-7.3 11.23 0 0zm-9.94.22c7.99 8.7-8.12 3.77 0 0zm-224.45.04c11.37 15.9-18.75 3.31 0 0zm323.47.72c3.02 2.24-2.06 2.3 0 0zm149.11.27c.24 4.64.12 2.4 0 0zm-200.8 1.06c2.06 5.4-5.88 2.4 0 0zm-167.19.49c3.3 8.52-4.53 6.18 0 0zm242.9 0c4.54 1.29-1 4.2 0 0zm-341.23.04c5.46 7.85-10.88 3.02 0 0zm-137.24 1.05c4.12 3.96-8.84 1.08 0 0zm-4.34.04c1.73 6.62-7.8.07 0 0zm282.03.27c5.23 1.78-4.09 4.07 0 0zm-187.38.98c31.66-3.16-15.46 11.52 0 0zm624.05 1.07c-12 11.87 3.57 13.8 0 0zm-514.15.36c10.29 6.7-7.23 10.06 0 0zm-51.11.4c16.24 13.34-21.77 4.2 0 0zm323.73.27c8.95.9-4.42 3.34 0 0zm-625.35.21c10.42-1.3 1.24 6.03 0 0zm632.58 1.31c4.23 2.3-4.23 2.3 0 0zm-261.91.37c10.99 17.36-17.18 11.47 0 0zm33.44 1.05c-1.9 4.23-.98 2.17 0 0zm252.96.6c4.24 1.85-3.49 4 0 0zm-199.02.4c11.85 5.44-5.44 11.96 0 0zm-141.5.75c14.74 10.65-14.75 14.34 0 0zm69.23.13c16.55 18.53-23.45 13.75 0 0zm118.95.06c8.32 8.12-9.3 9.17 0 0zm348.31 0c3.44 5.88-5.93 2.26 0 0zm-335.88 1.2c8.62 8.38-8.32 11.46 0 0zm-114.58.44c4.23 2.3-4.23 2.3 0 0zm196.2 0c12.28 8.48-8 9.72 0 0zm67.2 0c5.71.92-3.84 3.55 0 0zm-175.35.09c9.92 9.55-6.7 15.13 0 0zm353.41.38c4.94 5.14-8.16 2.9 0 0zm-370.56.53c11.64 5.71-9.03 11.86 0 0zm172.1 0c4.4 2.58-4.67 3.1 0 0zm-206.39.86c14.98 12.57-12.79 11.3 0 0zm149.1.14c13.1 10.77-9.95 14.1 0 0zm-35.2.11c13.15 12.13-8.84 18.3 0 0zm-219.5.89c9.16 9.99-13.7 8.22 0 0zm207.9 0c9.55 5.29-5.7 17.38 0 0zm313.9.1c.55 5.03-9.01 2.15 0 0zm-203.65.46c10.96 2.58-4.04 8.55 0 0zm-86.66.6c17.29 11.04-13.13 16.94 0 0zm-200.5.84c4.23 2.3-4.23 2.3 0 0zm165.67.11c14.2 6.23-10.79 11.85 0 0zm-128.67.89c13.9 9.5-9.91 12.87 0 0zm259.1.05c10.99 5.1-7.4 6.48 0 0zm-82.95.08c13.39 11.34-10.92 12.08 0 0zm-123.8 2.52c14.14 6.18-13.13 9.24 0 0zm236.84.35c14.54-.79-5.74 6.9 0 0zm159.9 0c2.18 3.97-5.14.36 0 0zm-501.76.5c10.58 12.93-17.69-.53 0 0zm493.21 1.5c8.97 4.65-13.23.32 0 0zm-811.65 1c-2.36 3.17 4.18 1.3 0 0zm387.4 0c10.85 8.75-13.48 5.74 0 0zm416.7 0c6.5 5.45-8.87 1.39 0 0zm-30.2.56c9.22-.69-4.08 4.53 0 0zM627 499.75c9.65 13.3-5.32 23.28 0 0zm-247.76.97c11.08 4.79-10.33 6.13 0 0zm72.56 1.13c4.23 8.57-8.97.02 0 0zm389.8.22c-.77 7.54-12.21-1.62 0 0zm-202.4.68c7.25 5.9-7.95 5.03 0 0zm214.4 0c5.27-.84.87 4.3 0 0zm-132.2.28c14.22 9.7-4.35 13.44 0 0zm-105 .82c6.74 12.09-13.02-1.72 0 0zm203.25.3c1.47 4.73-5.77 1.08 0 0zm-104.47.76c2.97 5.92-7.8-.74 0 0zm-318.6.88c7.83 5.93-9.78 4.32 0 0zm148.79 1.31c10.58 4.27-8.46 10.89 0 0zm-27.42.74c13.3 7.17-9.64 8.72 0 0zm16.67 1.4c6.7 4.2-8.42 3.56 0 0zm106.38.51c4.18 1.3-2.36 3.17 0 0zm104.7 1c2.36 3.17-4.18 1.3 0 0zm44.54.04c6.5 2.36-6.62 2.5 0 0zm-288.5 0c1.36 4.52.82 2.74 0 0zm-91.17.3c5.93.6-3.16 4.24 0 0zm195.86.03c6.54.27-2.4 5.3 0 0zm130.07.63c4.18 1.3-2.36 3.17 0 0zm13.6 0c4.23 2.3-4.23 2.3 0 0zm-179.69.09c9.6 14.01-8.2 7.92 0 0zm266.41.01c1.12 4.9-5.8-1.32 0 0zm-220.44.8c2.68 5.54-7.2-.17 0 0zm-20.98 1.1c4.9 9.7-8.76 3 0 0zm-13.54 3.21c7.54 1.09-4.92 3.65 0 0zm-34.06.9c3.36 8.39-10.26.13 0 0zm92.39.26c6.8 6.28-5.96 6.41 0 0zm37.51.63c2.36 3.17-4.18 1.3 0 0zm-73.81.4c5.26 3.92-4.87 5.2 0 0zm-112.88.6c4.18 1.3-2.36 3.17 0 0zm41.59.02c4.21 1.82-3.46 4 0 0zm-35.4.24c14.27 5.18-12.15 4.3 0 0zm-20.46.1c7.5 3.61-8.27 2.12 0 0zm153.97 1.64c2.36 3.17-4.18 1.3 0 0zm38.3 0c2.37 5.82-3.59 5.49 0 0zm-9.32 1.04c5.64 5.3-8.35 1.43 0 0zm-66.65 1c2.57 7.28-10.46-1.97 0 0zm-11.43 1.96c5.63 2.36-7.86 2.92 0 0zm-12.38 2.08c9.35 4.56-7.15 5.59 0 0zm-120.12 2.92c3.91 1.39-4.21 2.07 0 0zm72.8 3c8.5 4.93-10.8 3.6 0 0zm-18.53.96c6.9 3.59-6.77 2.57 0 0z"/>
</svg>
